<svg width="113" height="113" viewBox="0 0 113 113" fill="none" xmlns="http://www.w3.org/2000/svg">
<path d="M29.4856 16.63C30.884 16.63 32.0281 15.4854 32.0281 14.0864V3.1852C32.0281 1.78624 30.884 0.641602 29.4856 0.641602C28.087 0.641602 26.9429 1.78624 26.9429 3.1852V14.0864C26.9429 15.4854 28.087 16.63 29.4856 16.63Z" fill="white"/>
<path d="M77.4328 16.63C78.8313 16.63 79.9755 15.4854 79.9755 14.0864V3.1852C79.9755 1.78624 78.8313 0.641602 77.4328 0.641602C76.0343 0.641602 74.8901 1.78624 74.8901 3.1852V14.0864C74.8901 15.4854 76.0343 16.63 77.4328 16.63Z" fill="white"/>
<path d="M67.0611 108.281H65.5609H59.7962H20.5663V97.0304C20.5663 94.5653 18.5692 92.5674 16.105 92.5674H4.8584V31.8443C4.8584 31.8182 4.87946 31.7963 4.90558 31.7963H101.61C101.636 31.7963 101.657 31.8182 101.657 31.8443V56.6823V61.7222V63.9497C101.657 65.1539 102.633 66.1299 103.837 66.1299C105.041 66.1299 106.016 65.1539 106.016 63.9497V61.7222V56.6823V21.8799C106.016 13.5398 99.2581 6.77893 90.9208 6.77893H83.0909C83.0647 6.77893 83.0436 6.8 83.0436 6.82617V14.0246C83.0436 16.9388 80.9943 19.558 78.113 19.9882C74.5308 20.5238 71.4199 17.728 71.4199 14.2404V6.82617C71.4199 6.8 71.3989 6.77893 71.3727 6.77893H35.1431C35.1171 6.77893 35.0959 6.8 35.0959 6.82617V14.0246C35.0959 16.9388 33.0466 19.558 30.1653 19.9882C26.583 20.5238 23.4723 17.728 23.4723 14.2404V6.82617C23.4723 6.8 23.4512 6.77893 23.425 6.77893H15.595C7.258 6.77893 0.499512 13.5398 0.499512 21.8799V97.5405C0.499512 105.881 7.258 112.642 15.595 112.642H17.1046H19.0095H59.7962H65.5609H67.0611C68.2648 112.642 69.2405 111.666 69.2405 110.461C69.2405 109.257 68.2648 108.281 67.0611 108.281ZM17.6605 108.281H15.595C9.66547 108.281 4.8584 103.472 4.8584 97.5405V95.4744H16.105C16.963 95.4744 17.6605 96.1721 17.6605 97.0304V108.281Z" fill="white"/>
<path d="M92.5052 71.9105C81.4627 71.9105 72.5103 80.8654 72.5103 91.9127C72.5103 102.959 81.4627 111.915 92.5052 111.915C103.548 111.915 112.5 102.959 112.5 91.9127C112.5 80.8654 103.548 71.9105 92.5052 71.9105ZM101.075 92.2586C101.075 93.0675 100.413 93.7295 99.6043 93.7295H94.3214V99.0144C94.3214 99.8233 93.6602 100.485 92.851 100.485H92.1594C91.3508 100.485 90.689 99.8233 90.689 99.0144V93.7295H85.406C84.5975 93.7295 83.9364 93.0675 83.9364 92.2586V91.5668C83.9364 90.7579 84.5975 90.0958 85.406 90.0958H90.689V84.8109C90.689 84.0021 91.3508 83.34 92.1594 83.34H92.851C93.6602 83.34 94.3214 84.0021 94.3214 84.8109V90.0958H99.6043C100.413 90.0958 101.075 90.7579 101.075 91.5668V92.2586Z" fill="white"/>
<path d="M38.971 48.0464C38.971 45.1939 36.6521 42.8741 33.8013 42.8741H25.2528C22.4022 42.8741 20.0825 45.1939 20.0825 48.0464V56.5972C20.0825 59.449 22.4022 61.7695 25.2528 61.7695H33.8013C36.6521 61.7695 38.971 59.449 38.971 56.5972V48.0464ZM36.0651 56.5972C36.0651 57.8465 35.0494 58.8625 33.8013 58.8625H25.2528C24.004 58.8625 22.9884 57.8465 22.9884 56.5972V48.0464C22.9884 46.7971 24.004 45.7811 25.2528 45.7811H33.8013C35.0494 45.7811 36.0651 46.7971 36.0651 48.0464V56.5972Z" fill="white"/>
<path d="M63.1868 48.0464C63.1868 45.1939 60.8671 42.8741 58.0165 42.8741H49.468C46.6172 42.8741 44.2983 45.1939 44.2983 48.0464V56.5972C44.2983 59.449 46.6172 61.7695 49.468 61.7695H58.0165C60.8671 61.7695 63.1868 59.449 63.1868 56.5972V48.0464ZM60.2808 56.5972C60.2808 57.8465 59.2652 58.8625 58.0165 58.8625H49.468C48.2199 58.8625 47.2042 57.8465 47.2042 56.5972V48.0464C47.2042 46.7971 48.2199 45.7811 49.468 45.7811H58.0165C59.2652 45.7811 60.2808 46.7971 60.2808 48.0464V56.5972Z" fill="white"/>
<path d="M82.2322 61.7695C85.0837 61.7695 87.4026 59.449 87.4026 56.5972V48.0464C87.4026 45.1939 85.0837 42.8741 82.2322 42.8741H73.6844C70.8337 42.8741 68.5142 45.1939 68.5142 48.0464V56.5972C68.5142 59.449 70.8337 61.7695 73.6844 61.7695H82.2322ZM71.4201 56.5972V48.0464C71.4201 46.7971 72.4357 45.7811 73.6844 45.7811H82.2322C83.4811 45.7811 84.4967 46.7971 84.4967 48.0464V56.5972C84.4967 57.8465 83.4811 58.8625 82.2322 58.8625H73.6844C72.4357 58.8625 71.4201 57.8465 71.4201 56.5972Z" fill="white"/>
<path d="M33.8013 70.4904H25.2528C22.4022 70.4904 20.0825 72.8102 20.0825 75.6627V84.2135C20.0825 87.0653 22.4022 89.3857 25.2528 89.3857H33.8013C36.6521 89.3857 38.971 87.0653 38.971 84.2135V75.6627C38.971 72.8102 36.6521 70.4904 33.8013 70.4904ZM36.0651 84.2135C36.0651 85.4628 35.0494 86.4788 33.8013 86.4788H25.2528C24.004 86.4788 22.9884 85.4628 22.9884 84.2135V75.6627C22.9884 74.4134 24.004 73.3974 25.2528 73.3974H33.8013C35.0494 73.3974 36.0651 74.4134 36.0651 75.6627V84.2135Z" fill="white"/>
<path d="M58.0165 70.4904H49.468C46.6172 70.4904 44.2983 72.8102 44.2983 75.6627V84.2135C44.2983 87.0653 46.6172 89.3857 49.468 89.3857H58.0165C60.8671 89.3857 63.1868 87.0653 63.1868 84.2135V75.6627C63.1868 72.8102 60.8671 70.4904 58.0165 70.4904ZM60.2808 84.2135C60.2808 85.4628 59.2652 86.4788 58.0165 86.4788H49.468C48.2199 86.4788 47.2042 85.4628 47.2042 84.2135V75.6627C47.2042 74.4134 48.2199 73.3974 49.468 73.3974H58.0165C59.2652 73.3974 60.2808 74.4134 60.2808 75.6627V84.2135Z" fill="white"/>
</svg>
