<svg width="121" height="146" viewBox="0 0 121 146" fill="none" xmlns="http://www.w3.org/2000/svg">
<path d="M89.9743 94.8858C85.2136 90.1201 80.4495 85.3577 75.6805 80.5995C72.3673 77.2938 67.0626 77.2351 63.7301 80.5308C58.8202 85.3862 53.9406 90.2726 49.0793 95.1766C45.9932 98.2903 45.8139 103.203 48.646 106.557C49.0985 107.093 48.9954 107.373 48.563 107.798C46.5933 109.734 44.6262 111.674 42.6967 113.65C39.6543 116.766 40.2443 115.306 40.1815 119.705C40.1689 120.595 40.1798 121.485 40.1798 122.448C38.3107 122.448 36.5942 122.442 34.8784 122.45C33.5592 122.457 32.9541 123.045 32.9416 124.347C32.9256 125.841 32.9013 127.336 32.9516 128.828C32.9767 129.554 32.7119 129.743 32.0279 129.719C30.676 129.674 29.3216 129.705 27.9688 129.707C26.1341 129.709 25.5809 130.214 25.7536 132.025C26.0838 135.503 26.4995 138.971 26.9018 142.441C26.9974 143.262 27.5128 143.757 28.3342 143.877C29.0592 143.984 29.7893 144.052 30.5167 144.132C33.3732 144.447 36.2271 144.776 39.0869 145.054C39.459 145.091 40.163 145.269 40.4556 144.976L43.3916 142.04C43.6858 141.738 43.8986 141.533 44.27 141.162L46.7936 138.638L48.0022 137.429L50.0105 135.421C54.5616 130.847 59.0876 126.298 63.6405 121.722C63.793 121.836 63.9531 121.943 64.1006 122.065C66.9369 124.437 70.7362 124.922 73.8541 122.951C75.5237 121.895 76.8731 120.326 78.3299 118.95L82.4939 114.793C85.0099 112.328 87.4984 109.833 89.9827 107.336C93.5951 103.702 93.591 98.5057 89.9743 94.8858ZM60.7589 119.76C57.475 123.052 54.197 126.35 50.8955 129.624L44.9925 135.557C44.7754 135.774 44.5449 136.005 44.2766 136.273C44.0705 136.479 43.8836 136.665 43.6698 136.88L43.6497 136.9L43.6212 136.928L43.5474 137.002C42.1469 138.394 40.7221 139.839 39.2561 141.242C39.008 141.479 38.5705 141.68 38.2437 141.65C35.7761 141.418 33.3153 141.11 30.8487 140.863C30.2343 140.802 29.9745 140.552 29.9175 139.941C29.7574 138.231 29.5537 136.523 29.3693 134.814C29.3107 134.265 29.2595 133.713 29.1958 133.077C29.5931 133.055 29.894 133.027 30.1949 133.025C31.5762 133.02 32.9574 133.034 34.3387 133.019C35.606 133.005 36.1919 132.418 36.2094 131.142C36.2262 129.873 36.2111 128.605 36.2111 127.336C36.2104 126.839 36.2111 126.342 36.2111 125.756C38.0786 125.756 39.7934 125.759 41.5091 125.754C42.8786 125.751 43.4595 125.185 43.4721 123.803C43.4888 121.971 43.4427 120.138 43.5047 118.307C43.5199 117.858 43.7444 117.32 44.0537 116.994C45.507 115.461 47.0308 113.996 48.5144 112.493C49.4791 111.514 50.4178 110.509 51.2727 109.615C54.6312 112.945 57.8589 116.146 61.1159 119.377C61.0221 119.477 60.8955 119.624 60.7589 119.76ZM80.2492 102.513L80.0322 102.73C79.4195 103.343 78.4162 103.343 77.8036 102.73L73.3722 98.2987C73.3639 98.2912 73.3554 98.2811 73.3471 98.2736L68.0575 92.984C67.5077 92.4341 67.4549 91.5734 67.8907 90.9591C67.9661 90.8434 68.0525 90.731 68.1623 90.6255C68.2302 90.5609 68.3014 90.5089 68.3735 90.457C68.9904 89.934 69.9207 89.9558 70.5024 90.5383L80.2492 100.284C80.862 100.898 80.862 101.9 80.2492 102.513Z" fill="white"/>
<path d="M68.741 26.5229L92.925 50.7068L85.2677 58.3642C81.7089 61.923 78.0294 65.6025 71.0526 65.6025H45.3776C42.2505 65.6025 39.7067 63.057 39.7067 59.9282C39.7067 56.8019 42.2505 54.2581 45.3776 54.2581H61.1717C64.6324 54.2581 67.3438 51.5467 67.3438 48.0859C67.3438 44.6311 64.6324 41.9247 61.1717 41.9247H40.9211C40.6806 41.9247 40.476 41.9214 40.2992 41.9189C40.1266 41.9163 39.974 41.9138 39.8366 41.9138C38.0111 41.9138 36.9634 42.4033 35.6676 43.306C34.2629 44.285 32.263 46.2404 28.0346 50.4688L12.8071 65.693C11.839 66.6602 10.5415 67.1933 9.15439 67.1933C7.7673 67.1933 6.46982 66.6602 5.50259 65.693C4.30063 64.4902 4.16659 63.0495 4.19424 62.2985C4.24454 60.9382 4.78677 59.4873 5.76321 58.1027C9.30441 53.0822 17.0103 41.9339 22.4994 33.9857C24.8202 30.6239 28.9633 26.6159 35.5159 26.6159H67.1049C67.6732 26.6159 68.2172 26.5849 68.741 26.5229ZM70.0426 21.8971C69.2481 22.2349 68.3178 22.4251 67.1049 22.4251H35.5159C28.7335 22.4251 23.066 25.7903 19.0504 31.6046C14.5294 38.1522 6.07919 50.3842 2.33853 55.6871C0.977446 57.6174 0.0906657 59.8469 0.00600996 62.1451C-0.0778523 64.4425 0.713408 66.8304 2.53885 68.6559C4.35763 70.4746 6.75644 71.384 9.15439 71.384C11.5532 71.384 13.9511 70.4746 15.7699 68.6559L30.9975 53.4325C34.9451 49.4848 36.955 47.5168 38.0639 46.7441C38.871 46.1817 39.1065 46.1046 39.8366 46.1046C40.1098 46.1046 40.4526 46.1155 40.9211 46.1155H61.1717C62.299 46.1155 63.1531 46.9578 63.1531 48.0859C63.1531 49.2133 62.299 50.0674 61.1717 50.0674H45.3776C39.9438 50.0674 35.5159 54.4953 35.5159 59.9282C35.5159 65.3619 39.9438 69.7932 45.3776 69.7932H71.0526C79.6051 69.7932 84.2828 65.2756 88.2306 61.3279L98.8516 50.7068L70.0426 21.8971Z" fill="white"/>
<path d="M85.1417 0.751433L73.2952 12.5937C72.5292 13.3639 72.5292 14.6077 73.2952 15.3771L104.883 46.9662C105.654 47.7314 106.898 47.7314 107.667 46.9662L119.514 35.1231C120.279 34.3537 120.279 33.1099 119.514 32.3396L87.9403 0.751433C87.1499 -0.0397654 85.9765 -0.083375 85.1417 0.751433Z" fill="white"/>
</svg>
