<svg width="121" height="146" viewBox="0 0 121 146" fill="none" xmlns="http://www.w3.org/2000/svg">
<path d="M43.0923 2.89605C38.2576 7.72575 33.4261 12.5589 28.599 17.3971C25.2454 20.7575 25.1858 26.1399 28.5292 29.5206C33.4549 34.5017 38.4122 39.4521 43.3882 44.3839C46.5463 47.5147 51.5298 47.6967 54.9327 44.8235C55.4769 44.3643 55.7601 44.4689 56.192 44.9077C58.1562 46.9059 60.1238 48.9015 62.1288 50.8589C65.2894 53.9455 63.8082 53.3469 68.2714 53.4107C69.1744 53.4234 70.0782 53.4124 71.0544 53.4124C71.0544 55.3086 71.0476 57.05 71.0561 58.7905C71.0629 60.1289 71.6598 60.7428 72.9812 60.7556C74.4964 60.7718 76.0134 60.7964 77.5278 60.7454C78.2641 60.7199 78.4546 60.9886 78.4307 61.6824C78.3848 63.054 78.4163 64.428 78.4181 65.8004C78.4206 67.6617 78.9324 68.2229 80.7708 68.0478C84.2978 67.7127 87.8172 67.291 91.3366 66.882C92.1699 66.7859 92.6716 66.263 92.7941 65.4297C92.9021 64.6942 92.9709 63.9535 93.0526 63.2155C93.3722 60.3177 93.7056 57.4224 93.9878 54.5212C94.0253 54.1436 94.2064 53.4294 93.9087 53.1326L90.9302 50.154C90.6249 49.8556 90.4166 49.6396 90.0391 49.2629L87.4797 46.7027L86.2527 45.4765L84.2154 43.4392C79.5744 38.8221 74.9598 34.2305 70.3171 29.6116C70.4328 29.4569 70.5417 29.2945 70.6667 29.1448C73.0722 26.2674 73.5636 22.413 71.5646 19.2499C70.4941 17.5561 68.9014 16.1871 67.5052 14.7093L63.2886 10.485C60.787 7.93238 58.2566 5.40783 55.7226 2.88755C52.0366 -0.777258 46.7647 -0.773 43.0923 2.89605ZM68.3284 32.535C71.6675 35.8665 75.0125 39.192 78.3338 42.5413L84.3531 48.5299C84.5734 48.7502 84.8071 48.984 85.0793 49.2561C85.2884 49.4653 85.4781 49.6549 85.6949 49.8717L85.7153 49.8921L85.7442 49.921L85.819 49.9959C87.2314 51.4167 88.6973 52.8622 90.1207 54.3494C90.3613 54.6011 90.5645 55.045 90.5339 55.3766C90.3001 57.8799 89.9863 60.3763 89.7364 62.8788C89.6743 63.5021 89.42 63.7656 88.801 63.8235C87.0655 63.9859 85.3335 64.1925 83.6006 64.3796C83.042 64.4391 82.4824 64.4909 81.8371 64.5556C81.8149 64.1525 81.7861 63.8473 81.7844 63.542C81.7793 62.1407 81.7937 60.7386 81.7784 59.3381C81.764 58.0525 81.1695 57.4581 79.8737 57.4403C78.5871 57.4233 77.2999 57.4385 76.0124 57.4385C75.5083 57.4394 75.004 57.4385 74.4097 57.4385C74.4097 55.5441 74.4131 53.8044 74.4088 52.0638C74.4046 50.6744 73.8306 50.0852 72.4286 50.0724C70.5707 50.0554 68.7101 50.1022 66.8531 50.0393C66.3982 50.024 65.8514 49.7961 65.5206 49.4823C63.9664 48.0079 62.48 46.462 60.9546 44.957C59.9614 43.9783 58.9418 43.026 58.0346 42.1587C61.4137 38.7515 64.661 35.477 67.9381 32.1727C68.0401 32.268 68.1889 32.3964 68.3284 32.535ZM50.83 12.7621L51.0502 12.9823C51.6719 13.6039 51.6719 14.6217 51.0502 15.2432L46.5547 19.7388C46.5471 19.7473 46.5369 19.7558 46.5292 19.7643L41.163 25.1305C40.6052 25.6883 39.7328 25.7419 39.1094 25.2998C38.9913 25.2232 38.8774 25.1348 38.7702 25.0234C38.7048 24.9554 38.6521 24.8831 38.5992 24.81C38.0687 24.1833 38.0916 23.2403 38.6818 22.6494L48.5691 12.7621C49.1916 12.1405 50.2085 12.1405 50.83 12.7621Z" fill="white"/>
<path d="M110.841 79.6679C112.248 79.6679 113.564 80.2087 114.546 81.1908C115.766 82.4102 115.901 83.8718 115.873 84.6345C115.823 86.0137 115.272 87.4856 114.281 88.8903C110.687 93.987 102.87 105.295 97.3034 113.358C94.948 116.768 90.7449 120.834 84.0974 120.834H52.0513C51.4738 120.834 50.922 120.865 50.3905 120.929L25.856 96.3942L33.6252 88.625C37.2347 85.0155 40.9684 81.2818 48.0463 81.2818H74.0936C77.2651 81.2818 79.8458 83.8642 79.8458 87.0383C79.8458 90.2108 77.2651 92.7915 74.0936 92.7915H58.0696C54.5587 92.7915 51.808 95.5422 51.808 99.0531C51.808 102.558 54.5587 105.304 58.0696 105.304H78.6145C78.8586 105.304 79.0652 105.306 79.2447 105.31C79.4197 105.312 79.5745 105.314 79.7141 105.314C81.566 105.314 82.6288 104.818 83.9434 103.902C85.3685 102.909 87.3973 100.925 91.6871 96.6357L107.136 81.1908C108.117 80.2087 109.434 79.6679 110.841 79.6679ZM110.841 75.4164C108.408 75.4164 105.975 76.339 104.129 78.1842L88.6813 93.629C84.6763 97.6339 82.6373 99.6304 81.5124 100.414C80.6936 100.985 80.4546 101.062 79.7141 101.062C79.4368 101.062 79.0891 101.052 78.6145 101.052H58.0696C56.9259 101.052 56.0595 100.197 56.0595 99.0531C56.0595 97.9094 56.9259 97.043 58.0696 97.043H74.0936C79.6052 97.043 84.0974 92.5508 84.0974 87.0383C84.0974 81.5267 79.6052 77.0303 74.0936 77.0303H48.0463C39.3689 77.0303 34.6234 81.6143 30.6185 85.6192L19.8435 96.3942L49.0709 125.621C49.876 125.278 50.8199 125.085 52.0513 125.085H84.0974C90.9779 125.085 96.7285 121.672 100.801 115.773C105.388 109.13 113.962 96.7207 117.756 91.3409C119.136 89.3826 120.036 87.1217 120.122 84.7901C120.207 82.4595 119.404 80.0361 117.552 78.1842C115.707 76.339 113.274 75.4164 110.841 75.4164Z" fill="white"/>
<path d="M35.4527 144.523L47.4716 132.508C48.248 131.728 48.248 130.466 47.4716 129.684L15.4247 97.6382C14.6432 96.861 13.3822 96.861 12.6009 97.6382L0.582672 109.652C-0.19455 110.434 -0.19455 111.695 0.582672 112.476L32.6134 144.523C33.4153 145.326 34.6057 145.37 35.4527 144.523Z" fill="white"/>
</svg>
