<svg width="33" height="33" viewBox="0 0 33 33" fill="none" xmlns="http://www.w3.org/2000/svg">
<path d="M32.5002 12.681C32.5002 5.95633 27.0406 0.5 20.2989 0.5C16.1852 0.5 12.5417 2.533 10.3369 5.64925L11.2652 6.57602C13.2263 3.68572 16.5392 1.79169 20.2989 1.79169C26.3211 1.79169 31.2064 6.66866 31.2064 12.681C31.2064 16.4286 29.3092 19.7302 26.4256 21.688L27.3539 22.6148C30.4695 20.4137 32.5002 16.782 32.5002 12.681Z" fill="white" stroke="white"/>
<path d="M22.6046 21.4317L22.6047 21.4316L22.5971 21.4241C21.4395 20.2682 19.5103 20.108 18.226 21.2516L18.2046 21.2706L18.1844 21.2908C17.8386 21.636 17.5795 21.8542 17.3868 21.9871C17.3006 22.0466 17.2367 22.0826 17.1927 22.1042C17.1716 22.0846 17.1448 22.0585 17.1116 22.024L17.103 22.0151L17.0943 22.0064L10.9412 15.9097C10.9408 15.9093 10.9404 15.9089 10.94 15.9085C10.8989 15.8674 10.8688 15.8353 10.8471 15.8107C10.8686 15.7681 10.904 15.7067 10.9614 15.6243C11.0947 15.4329 11.3136 15.175 11.6606 14.8287L11.6807 14.8085L11.6998 14.7873C12.8461 13.5042 12.6855 11.5765 11.5284 10.4199C11.528 10.4196 11.5277 10.4192 11.5273 10.4188L8.05996 6.93407L8.05997 6.93407L8.05754 6.93164C6.90154 5.7778 5.00427 5.61827 3.72114 6.72624L3.71343 6.7329L3.70586 6.73971C1.91886 8.34745 1.32959 10.9367 1.54148 13.3714C1.75418 15.8155 2.78878 18.354 4.58045 20.0199L13.0339 28.4593C14.6571 30.1719 17.1239 31.2165 19.542 31.4497C21.9585 31.6828 24.5369 31.1198 26.2408 29.3321L26.2572 29.3148L26.2728 29.2969C27.382 28.0161 27.2238 26.1224 26.0708 24.9672L22.6046 21.4317Z" stroke="white" stroke-width="2"/>
<path d="M22.7909 8.82213L19.7338 9.20471L19.6243 9.71117L20.2251 9.82182C20.6176 9.91515 20.6949 10.0563 20.6095 10.4468L19.6243 15.0692C19.3652 16.2646 19.7644 16.8272 20.703 16.8272C21.4306 16.8272 22.2755 16.4913 22.6588 16.0301L22.7763 15.4756C22.5093 15.7101 22.1195 15.8035 21.8604 15.8035C21.4933 15.8035 21.3598 15.5463 21.4547 15.093L22.7909 8.82213ZM22.8844 6.03923C22.8844 6.77522 22.2867 7.37209 21.5493 7.37209C20.8121 7.37209 20.2143 6.77522 20.2143 6.03923C20.2143 5.30305 20.8121 4.70636 21.5493 4.70636C22.2867 4.70636 22.8844 5.30305 22.8844 6.03923Z" fill="white"/>
</svg>
